<svg xmlns="http://www.w3.org/2000/svg" xmlns:xlink="http://www.w3.org/1999/xlink" width="60" height="60" viewBox="0 0 60 60">
  <defs>
    <linearGradient id="linear-gradient" x1="0.5" x2="0.5" y2="1" gradientUnits="objectBoundingBox">
      <stop offset="0" stop-color="#0bae1b"/>
      <stop offset="1" stop-color="#266e08"/>
    </linearGradient>
    <clipPath id="clip-سلة_المشتريات">
      <rect width="60" height="60"/>
    </clipPath>
  </defs>
  <g id="سلة_المشتريات" data-name="سلة المشتريات" clip-path="url(#clip-سلة_المشتريات)">
    <rect width="60" height="60" fill="#fff"/>
    <g id="Group_3263" data-name="Group 3263" transform="translate(-20 -168)">
      <path id="Path_20875" data-name="Path 20875" d="M30,0A30,30,0,1,1,0,30,30,30,0,0,1,30,0Z" transform="translate(20 168)" fill="#fff"/>
      <path id="Union_1" data-name="Union 1" d="M-396.548-9.037a3.1,3.1,0,0,1-3.047-2.121s-2.155-7.17-3.158-10.526h29.678c-1.046,3.485-2.107,7.02-3.155,10.524a3.1,3.1,0,0,1-3.047,2.123ZM-382.367-19.3l-.971,6.474a.967.967,0,0,0,.842,1.09,1.117,1.117,0,0,0,.144.01.987.987,0,0,0,.985-.824l.972-6.474a.967.967,0,0,0-.843-1.089.988.988,0,0,0-.145-.01A.986.986,0,0,0-382.367-19.3Zm-6.547.138v6.474a.98.98,0,0,0,1,.962.98.98,0,0,0,1-.962v-6.474a.98.98,0,0,0-1-.962A.98.98,0,0,0-388.913-19.166Zm-5.683-.951a.967.967,0,0,0-.843,1.089l.972,6.474a.987.987,0,0,0,.985.824,1.128,1.128,0,0,0,.144-.01.967.967,0,0,0,.842-1.09l-.971-6.474a.985.985,0,0,0-.984-.824A.988.988,0,0,0-394.6-20.117Zm-9.319-3.49a.98.98,0,0,1-1-.962v-2.757a.98.98,0,0,1,1-.962h6.107l1.99,1.922A4.031,4.031,0,0,0-393-25.242a4.033,4.033,0,0,0,2.818-1.124,3.774,3.774,0,0,0,1.078-1.922h2.389a3.782,3.782,0,0,0,1.077,1.922,4.033,4.033,0,0,0,2.818,1.124A4.031,4.031,0,0,0-380-26.366l1.99-1.922h6.107a.98.98,0,0,1,1,.962v2.757a.98.98,0,0,1-1,.962Zm19.685-4.119a1.884,1.884,0,0,1,0-2.721l6.762-6.529a2.05,2.05,0,0,1,2.818,0,1.883,1.883,0,0,1,0,2.721l-6.762,6.529a2.023,2.023,0,0,1-1.409.561A2.021,2.021,0,0,1-384.23-27.726Zm-10.18,0-6.762-6.529a1.883,1.883,0,0,1,0-2.721,2.049,2.049,0,0,1,2.817,0l6.762,6.529a1.883,1.883,0,0,1,0,2.721,2.019,2.019,0,0,1-1.409.561A2.021,2.021,0,0,1-394.41-27.726Z" transform="translate(437.911 221.536)" fill="url(#linear-gradient)"/>
    </g>
  </g>
</svg>
