<?xml version="1.0" encoding="utf-8"?>
<!-- Generator: Adobe Illustrator 23.0.3, SVG Export Plug-In . SVG Version: 6.00 Build 0)  -->
<svg version="1.1" id="Layer_1" xmlns="http://www.w3.org/2000/svg" xmlns:xlink="http://www.w3.org/1999/xlink" x="0px" y="0px"
	 viewBox="0 0 273 278.2" style="enable-background:new 0 0 273 278.2;" xml:space="preserve">
<style type="text/css">
	.st0{fill:#EF2824;}
	.st1{fill:#47210B;}
	.st2{clip-path:url(#XMLID_4_);}
	.st3{fill:#B2CD2A;}
	.st4{fill:#FFFFFF;}
	.st5{font-family:'Roboto-Black';}
	.st6{font-size:12.4006px;}
</style>
<g>
	<g>
		<g>
			<path class="st0" d="M73.8,186.4c-1.8,1.8-4.7,1.8-6.5,0L21,140.1c-1.8-1.8-1.8-4.7,0-6.5l46.3-46.3c1.8-1.8,4.7-1.8,6.5,0
				l46.3,46.3c1.8,1.8,1.8,4.7,0,6.5L73.8,186.4z"/>
			<g>
				<path class="st1" d="M261.6,137.7c0,0,0.1,0.1,0.3,0.3c0.2,0.2,0.6,0.6,1,1.1c0.8,1,1.9,2.7,2.5,5.1c0.3,1.2,0.5,2.7,0.4,4.2
					c-0.1,1.6-0.4,3.3-1.2,5c-0.4,0.9-0.9,1.7-1.5,2.5c-0.6,0.8-1.3,1.6-2.1,2.4c-1.5,1.5-3.1,3.2-4.7,4.9
					c-6.7,6.9-14.9,15.3-24.4,25.1c-4.8,4.9-9.9,10.1-15.3,15.6c-1.4,1.4-2.7,2.8-4.1,4.2c-0.4,0.4-0.7,0.7-1.1,1.1
					c-0.4,0.4-0.8,0.7-1.2,1.1c-0.9,0.7-1.8,1.3-2.8,1.8c-2,1-4.3,1.5-6.6,1.5c-1,0-2.1,0.1-3.2,0c-0.6,0-1.2-0.1-1.8-0.2
					c-0.4-0.1-0.4-0.1-0.6-0.1c-0.1,0-0.3-0.1-0.4-0.1c0,0,0,0-0.1,0l-0.1,0.1l-0.1,0.1l-0.2,0.2l-0.6,0.6c-0.6,0.6-1.2,1.2-1.7,1.8
					c-1.2,1.2-2.3,2.4-3.5,3.6c-2.4,2.4-4.8,4.9-7.2,7.4c-4.9,5-10,10.2-15.2,15.5c-5.2,5.3-10.6,10.8-16,16.4
					c-2.7,2.8-5.5,5.6-8.3,8.5l-0.5,0.6c-0.2,0.2-0.4,0.4-0.6,0.6c-0.4,0.4-0.9,0.8-1.4,1.1c-0.9,0.7-2,1.3-3,1.7
					c-2.2,0.9-4.5,1.4-6.9,1.4c-2.4,0-4.8-0.6-6.9-1.6c-1.1-0.5-2.1-1.2-3.1-1.9c-0.5-0.4-0.9-0.8-1.4-1.2l-1.1-1.1
					c-3-2.9-6-5.9-9.1-8.9c-6.1-6-12.3-12.2-18.6-18.4c-6.3-6.3-12.7-12.6-19.3-19.1c-1.6-1.6-3.3-3.2-4.9-4.9l-1.2-1.2
					c-0.2-0.2-0.5-0.5-0.7-0.7c-0.2-0.3-0.5-0.5-0.7-0.8c-0.9-1.1-1.6-2.3-2.2-3.5c-1.2-2.5-1.8-5.3-1.6-8.1
					c0.1-1.4,0.3-2.8,0.7-4.1c0.1-0.3,0.2-0.7,0.3-1l0.2-0.5c0,0,0,0,0-0.1l-0.1,0l0,0l-0.1,0l-0.1-0.1l-0.2-0.2
					c-0.2-0.1-0.3-0.3-0.5-0.4l-0.8-0.8c-1-1-2.1-2-3.1-3.1c-2.1-2-4.1-4.1-6.2-6.2c-4.1-4.1-8.3-8.3-12.5-12.5
					c-4.2-4.2-8.4-8.4-12.7-12.7c-2.1-2.1-4.3-4.3-6.4-6.4c-1.1-1.1-2.1-2.1-3.2-3.2l-1.6-1.6c-0.6-0.7-1.2-1.4-1.8-2.1
					c-1.4-2-2.3-4.3-2.7-6.7c-0.4-2.4-0.3-4.8,0.4-7.1c0.6-2.3,1.8-4.5,3.3-6.3c0.2-0.2,0.4-0.4,0.6-0.7l0.6-0.6l1-1l2.1-2.1
					c5.5-5.5,11-11,16.5-16.4c5.4-5.4,10.8-10.8,16.2-16.1c2.7-2.7,5.3-5.3,8-7.9c0.7-0.7,1.3-1.3,2-2l0.5-0.5
					c0.2-0.2,0.4-0.4,0.6-0.6c0.4-0.4,0.8-0.7,1.3-1c0.9-0.7,1.9-1.2,2.9-1.7c0.3-0.1,0.5-0.2,0.8-0.3c0.1-0.1,0.3-0.1,0.4-0.1
					l0.1,0l0.1,0l0-0.1l0.1-0.4c0.2-0.8,0.4-1.5,0.7-2.3c0.6-1.5,1.3-2.9,2.3-4.1c0.5-0.6,1-1.2,1.5-1.8l1.4-1.4
					c0.9-0.9,1.9-1.9,2.8-2.8c3.7-3.7,7.4-7.4,11.1-11C92.4,44,99.6,36.9,106.6,30c3.5-3.5,7-6.9,10.4-10.3c1.7-1.7,3.4-3.4,5.1-5
					c0.8-0.8,1.7-1.7,2.5-2.5l1.3-1.2l0.6-0.6c0.2-0.2,0.5-0.5,0.7-0.7c2-1.8,4.5-3.1,7.1-3.7c2.6-0.6,5.3-0.6,7.9,0
					c2.6,0.6,4.9,1.8,6.9,3.5c0.2,0.2,0.5,0.4,0.7,0.6l0.3,0.3l0.3,0.3l1.2,1.2c0.8,0.8,1.6,1.6,2.3,2.4
					C166.5,27,178.2,38.9,189,49.9c5.4,5.5,10.6,10.8,15.5,15.9c0.3,0.3,0.6,0.6,0.9,0.9c0.3,0.3,0.6,0.6,0.9,1
					c0.6,0.7,1.2,1.4,1.7,2.2c1,1.6,1.7,3.3,2.1,5.1c0.4,1.8,0.5,3.6,0.3,5.3c-0.1,0.9-0.3,1.7-0.5,2.6l0,0.2l0,0.1l-0.1,0.2
					c0,0.1-0.1,0.2-0.1,0.4c-0.1,0.2-0.2,0.5-0.3,0.7c0.2,0.1,0.4,0.2,0.6,0.4c0.1,0.1,0.2,0.1,0.3,0.2l0.1,0.1l0.2,0.1
					c0.6,0.5,1.2,1.1,1.7,1.6c1,1,2,2.1,3,3.1c2,2,3.9,4,5.7,5.9c3.7,3.8,7.2,7.4,10.4,10.7c6.5,6.7,12,12.3,16.5,17
					C256.8,132.7,261.6,137.7,261.6,137.7s-5-4.8-14.3-13.8c-4.6-4.5-10.3-10-17-16.5c-3.3-3.2-6.9-6.7-10.7-10.4
					c-1.9-1.8-3.9-3.8-5.9-5.7c-1-1-2-2-3.1-3c-0.5-0.5-1-1-1.5-1.4l-0.3-0.2c-0.1-0.1-0.2-0.1-0.3-0.2c-0.2-0.1-0.4-0.3-0.6-0.4
					c-0.4-0.3-0.9-0.5-1.3-0.8c0.2-0.5,0.4-1,0.6-1.5c0.1-0.3,0.2-0.5,0.3-0.8l0.1-0.4l0.1-0.2l0-0.1c0.2-0.7,0.3-1.5,0.4-2.2
					c0.1-1.5,0-3.1-0.3-4.6c-0.4-1.5-1-2.9-1.9-4.3c-0.4-0.7-0.9-1.3-1.5-1.8c-0.3-0.3-0.6-0.6-0.9-0.9c-0.3-0.3-0.6-0.6-0.9-0.9
					c-5.1-4.9-10.3-10.1-15.9-15.5c-11-10.8-22.9-22.5-35.6-34.9c-0.8-0.8-1.6-1.6-2.4-2.3l-1.2-1.2l-0.3-0.3l-0.3-0.2
					c-0.2-0.2-0.4-0.3-0.5-0.5c-1.5-1.2-3.3-2.1-5.2-2.5c-1.9-0.4-3.9-0.4-5.8,0.1c-1.9,0.5-3.7,1.4-5.2,2.8
					c-6.6,6.7-13.3,13.5-20.2,20.5c-6.9,7-14,14.2-21.3,21.5c-3.6,3.7-7.3,7.4-11,11.1c-0.9,0.9-1.9,1.9-2.8,2.8l-1.4,1.4
					c-0.4,0.4-0.7,0.8-1,1.2c-0.6,0.9-1.2,1.8-1.5,2.8c-0.2,0.5-0.3,1-0.5,1.6l0,0.2l0,0.2c0,0.1,0,0.2,0,0.2
					c-0.1,0.3-0.1,0.6-0.1,1l-0.2,2c-0.9,0.2-1.8,0.4-2.6,0.7c-0.2,0.1-0.4,0.1-0.6,0.2c-0.1,0-0.2,0.1-0.3,0.1
					c-0.2,0.1-0.3,0.1-0.5,0.2c-0.7,0.3-1.3,0.7-1.9,1.1c-0.3,0.2-0.6,0.4-0.9,0.7c-0.1,0.1-0.3,0.3-0.4,0.4l-0.5,0.5
					c-0.7,0.7-1.3,1.3-2,2c-2.6,2.6-5.3,5.3-7.9,8c-5.3,5.3-10.7,10.7-16.1,16.2c-5.4,5.4-10.9,10.9-16.4,16.5L18,128l-1,1l-0.5,0.5
					c-0.1,0.1-0.3,0.3-0.4,0.4c-1,1.2-1.7,2.6-2.1,4c-0.4,1.5-0.5,3.1-0.2,4.6c0.2,1.5,0.8,3,1.7,4.3c0.3,0.5,0.7,1,1.1,1.4l1.6,1.6
					c1.1,1.1,2.1,2.1,3.2,3.2c2.1,2.1,4.3,4.3,6.4,6.4c4.3,4.3,8.5,8.5,12.7,12.7c4.2,4.2,8.4,8.4,12.5,12.5
					c2.1,2.1,4.1,4.1,6.2,6.2c1,1,2,2.1,3.1,3.1l0.8,0.8c0.1,0.1,0.2,0.2,0.3,0.3l0.2,0.1l0.2,0.2c0.3,0.2,0.6,0.4,0.9,0.6l0.9,0.6
					l1.9,1.2c-0.6,1-1.3,2.1-1.8,3.1c-0.1,0.3-0.3,0.5-0.4,0.8l-0.1,0.4c-0.1,0.2-0.2,0.4-0.2,0.7c-0.3,0.9-0.4,1.8-0.5,2.8
					c-0.1,1.9,0.3,3.8,1.1,5.5c0.4,0.8,0.9,1.6,1.5,2.4c0.1,0.2,0.3,0.4,0.5,0.5c0.2,0.2,0.3,0.3,0.5,0.5l1.2,1.2
					c1.6,1.6,3.3,3.3,4.9,4.9c6.5,6.5,12.8,12.9,19.1,19.3c6.2,6.3,12.4,12.5,18.4,18.6c3,3,6,6.1,8.9,9.1l1.1,1.1
					c0.3,0.3,0.6,0.6,1,0.9c0.7,0.5,1.4,1,2.2,1.4c1.6,0.8,3.3,1.2,5,1.2c1.7,0,3.5-0.3,5-0.9c0.8-0.3,1.5-0.7,2.2-1.2
					c0.4-0.2,0.7-0.5,1-0.8c0.2-0.1,0.3-0.3,0.5-0.4l0.5-0.5c2.9-2.8,5.7-5.6,8.5-8.4c5.6-5.5,11-10.9,16.3-16.1
					c5.3-5.2,10.5-10.3,15.4-15.2c2.5-2.5,5-4.9,7.4-7.2c1.2-1.2,2.4-2.4,3.6-3.5c0.6-0.6,1.2-1.2,1.8-1.7l1.1-1.1l0.7-0.6l0.3-0.3
					l0.2-0.2c0.1-0.1,0.1-0.1,0.2-0.1c0.4,0.2,0.8,0.3,1.2,0.5c0.4,0.2,0.9,0.3,1,0.3c0.4,0.1,0.9,0.1,1.4,0.2c1,0.1,2,0,3.1,0
					c1.9,0,3.8-0.4,5.4-1.1c0.8-0.4,1.6-0.9,2.4-1.4c0.4-0.3,0.7-0.6,1-0.9c0.4-0.3,0.7-0.7,1.1-1c1.4-1.4,2.8-2.8,4.2-4.1
					c5.5-5.4,10.8-10.5,15.6-15.3c9.8-9.5,18.2-17.7,25.1-24.4c1.7-1.7,3.3-3.2,4.9-4.7c0.8-0.7,1.5-1.4,2.1-2.2
					c0.6-0.8,1.1-1.6,1.5-2.4c0.8-1.6,1.2-3.3,1.3-4.8c0.1-1.5,0-2.9-0.3-4.2c-0.6-2.5-1.6-4.1-2.3-5.2c-0.4-0.5-0.7-0.9-0.9-1.1
					C261.7,137.8,261.6,137.7,261.6,137.7z"/>
			</g>
			<g>
				<defs>
					<path id="XMLID_2_" d="M142.5,139c-2.2,2.2-5.8,2.2-8,0L78.1,82.6c-2.2-2.2-2.2-5.8,0-8l56.4-56.4c2.2-2.2,5.8-2.2,8,0
						l56.4,56.4c2.2,2.2,2.2,5.8,0,8L142.5,139z"/>
				</defs>
				<use xlink:href="#XMLID_2_"  style="overflow:visible;fill:#FFC600;"/>
				<clipPath id="XMLID_4_">
					<use xlink:href="#XMLID_2_"  style="overflow:visible;"/>
				</clipPath>
				<g class="st2">
					<circle class="st1" cx="125.2" cy="49" r="1.1"/>
					<path class="st1" d="M128.5,47.9h15.7v2.2h-15.7V47.9z"/>
					<path class="st1" d="M137.5,56.8h11.2V59h-11.2V56.8z"/>
					<path class="st1" d="M146.4,61.3h2.2v2.2h-2.2V61.3z"/>
					<path class="st1" d="M137.5,61.3h6.7v2.2h-6.7V61.3z"/>
					<path class="st1" d="M137.5,65.8h11.2V68h-11.2V65.8z"/>
					<path class="st1" d="M137.5,70.2h11.2v2.2h-11.2V70.2z"/>
					<path class="st1" d="M173.3,112.5V90.9l-4.7-3.5l-1.4-3.6c-0.5-1.3-1.3-2.4-2.2-3.4l-7.3-7.3V49c0-3.1-2.5-5.6-5.6-5.6h-35.8
						c-3.1,0-5.6,2.5-5.6,5.6v26.2l-3.1,3.1c-2.3,2.3-3.6,5.4-3.6,8.8c0,0.7,0.1,1.4,0.2,2l1.7,10.4c0.2,1.5,0.6,2.9,1.2,4.2
						l1.4,3.5v5.6H124v-5.4l0.8-1.9c0.2-0.5,0.4-1.1,0.6-1.6h33.4L173.3,112.5z M171,108.5l-13.9-8.3l10.6-10.6L171,92V108.5z
						 M165.1,84.7l1.3,3.2L155,99.2l-4.8-0.7c-1.4-0.2-2.8-0.8-3.9-1.7l-2.3-1.9c-1.3-1-2.7-1.8-4.3-2.1v-0.2h-2.1h-0.2
						c-0.6,0-1.1-0.5-1.1-1.1c0-0.4,0.2-0.7,0.5-0.9l0.4-0.3c1.1-0.7,2.4-1.1,3.7-1.1c1.8,0,3.5,0.7,4.7,2l1.1,1.1l1.6-1.6l-1.1-1.1
						l-15-15c-0.2-0.2-0.4-0.6-0.4-0.9c0-0.7,0.6-1.3,1.3-1.3c0.3,0,0.6,0.1,0.9,0.4l8.9,8.9l4.9,4.9l1.6-1.6l-4.9-4.9
						c-0.2-0.2-0.4-0.6-0.4-0.9c0-0.7,0.6-1.3,1.3-1.3c0.3,0,0.6,0.1,0.9,0.4l4.9,4.9l1.6-1.6l-4.9-4.9c-0.2-0.2-0.4-0.6-0.4-0.9
						c0-0.7,0.6-1.3,1.3-1.3c0.3,0,0.6,0.1,0.9,0.4l2.2,2.2l2.7,2.7l1.6-1.6l-2.7-2.7c-0.2-0.2-0.4-0.6-0.4-0.9
						c0-0.7,0.6-1.3,1.3-1.3c0.3,0,0.6,0.1,0.9,0.4l8.1,8.1C164.1,82.8,164.7,83.7,165.1,84.7L165.1,84.7z M137.4,94.8L137.4,94.8
						l0.1,2.2h-6.7v-2.2H137.4z M125.4,85.9h5.3v-6.7H124v3.2c-0.7-0.6-1.5-0.9-2.4-0.9c-1.7,0-3.2,1.2-3.6,2.8l-0.7,2.6V54.6h33.6
						v18.6c-0.6-0.5-1.3-0.7-2.1-0.7c-1.9,0-3.4,1.5-3.5,3.4c-1.4,0-2.5,0.9-3.1,2.1l-6.6-6.6c-0.1-0.1-0.2-0.2-0.4-0.3V56.8h-15.7
						v15.7h10.3c-0.2,0.4-0.2,0.8-0.2,1.3c0,0.3,0.1,0.7,0.2,1h-10.2v2.2h11.8l2.2,2.2H133v6.7h6.7v-0.7l1.8,1.8c-0.2,0-0.4,0-0.6,0
						c-1.5,0-3,0.4-4.3,1.1h-11.1L125.4,85.9z M126.3,83.7v-2.2h2.2v2.2H126.3z M126.3,59h2.2v2.2h-2.2V59z M130.8,63.5V59h2.2v11.2
						h-11.2V59h2.2v4.5H130.8z M135.2,81.4h0.7l1.6,1.6v0.7h-2.2V81.4z M112.9,49c0-1.9,1.5-3.4,3.4-3.4H152c1.9,0,3.4,1.5,3.4,3.4
						v22.5c-0.3-0.1-0.6-0.2-1-0.2c-0.4,0-0.9,0.1-1.3,0.2V52.3h-38v41.1c-0.1,0.3-0.3,0.6-0.4,0.9c-0.2,0.3-0.5,0.5-0.9,0.5
						c-0.5,0-1-0.4-1-1V49z M121.8,110.5h-11.2v-2.2h11.2V110.5z M122.7,104.6l-0.6,1.4h-11.8l-1.3-3.1c-0.5-1.2-0.8-2.5-1.1-3.8
						l-1.7-10.4c-0.1-0.6-0.1-1.1-0.1-1.7c0-2.7,1.1-5.3,3-7.2l1.5-1.5v15.5c0,1.8,1.4,3.2,3.2,3.2c1.2,0,2.3-0.7,2.9-1.8
						c1.1-2.3,2-4.7,2.7-7.2l0.8-3.4c0.2-0.7,0.8-1.1,1.5-1.1c0.8,0,1.4,0.6,1.5,1.4l0.9,11.4c0,0.5,0.1,0.9,0.1,1.4
						C124,100.2,123.6,102.4,122.7,104.6L122.7,104.6z M125.9,101.5c0.2-1.2,0.3-2.5,0.3-3.7c0-0.5,0-1-0.1-1.6l-0.5-5.9h8.6
						c-0.1,0.4-0.2,0.8-0.2,1.2c0,0.4,0.1,0.7,0.2,1.1h-5.8v6.7h11.2v-4.2c1.1,0.3,2,0.8,2.9,1.5l2.3,1.9c1.4,1.2,3.2,2,5,2.2
						l5.1,0.7l0.1,0L125.9,101.5z"/>
				</g>
			</g>
			<g>
				<defs>
					<path id="XMLID_1_" d="M133.7,259.9c-2.1,2.1-5.5,2.1-7.6,0l-54-54c-2.1-2.1-2.1-5.5,0-7.6l54-54c2.1-2.1,5.5-2.1,7.6,0l54,54
						c2.1,2.1,2.1,5.5,0,7.6L133.7,259.9z"/>
				</defs>
				<use xlink:href="#XMLID_1_"  style="overflow:visible;fill:#47210B;"/>
				<clipPath id="XMLID_5_">
					<use xlink:href="#XMLID_1_"  style="overflow:visible;"/>
				</clipPath>
			</g>
			<path class="st3" d="M204.6,201.8c-2,2-5.2,2-7.1,0l-50.6-50.6c-2-2-2-5.2,0-7.1l50.6-50.6c2-2,5.2-2,7.1,0l50.6,50.6
				c2,2,2,5.2,0,7.1L204.6,201.8z"/>
			<g>
				<defs>
					<path id="SVGID_1_" d="M204.6,201.8c-2,2-5.2,2-7.1,0l-50.6-50.6c-2-2-2-5.2,0-7.1l50.6-50.6c2-2,5.2-2,7.1,0l50.6,50.6
						c2,2,2,5.2,0,7.1L204.6,201.8z"/>
				</defs>
				<clipPath id="SVGID_2_">
					<use xlink:href="#SVGID_1_"  style="overflow:visible;"/>
				</clipPath>
			</g>
			<g>
				<defs>
					<path id="SVGID_3_" d="M133.7,259.9c-2.1,2.1-5.5,2.1-7.6,0l-54-54c-2.1-2.1-2.1-5.5,0-7.6l54-54c2.1-2.1,5.5-2.1,7.6,0l54,54
						c2.1,2.1,2.1,5.5,0,7.6L133.7,259.9z"/>
				</defs>
				<clipPath id="SVGID_4_">
					<use xlink:href="#SVGID_3_"  style="overflow:visible;"/>
				</clipPath>
			</g>
			<g>
				<defs>
					<path id="SVGID_5_" d="M73.8,186.4c-1.8,1.8-4.7,1.8-6.5,0L21,140.1c-1.8-1.8-1.8-4.7,0-6.5l46.3-46.3c1.8-1.8,4.7-1.8,6.5,0
						l46.3,46.3c1.8,1.8,1.8,4.7,0,6.5L73.8,186.4z"/>
				</defs>
				<clipPath id="SVGID_6_">
					<use xlink:href="#SVGID_5_"  style="overflow:visible;"/>
				</clipPath>
			</g>
		</g>
		<g>
			<g>
				<path class="st4" d="M105.1,226.9h22v-22h-22V226.9z M109.5,209.3h13.2v13.2h-13.2V209.3z"/>
				<rect x="113.9" y="213.7" class="st4" width="4.4" height="4.4"/>
				<rect x="140.4" y="222.5" class="st4" width="4.4" height="4.4"/>
				<rect x="149.2" y="222.5" class="st4" width="4.4" height="4.4"/>
				<polygon class="st4" points="149.2,209.3 144.8,209.3 144.8,204.9 131.6,204.9 131.6,226.9 136,226.9 136,213.7 140.4,213.7 
					140.4,218.1 153.6,218.1 153.6,204.9 153.6,204.9 149.2,204.9 				"/>
				<path class="st4" d="M105.1,200.4h22v-22h-22V200.4z M109.5,182.8h13.2V196h-13.2V182.8z"/>
				<rect x="113.9" y="187.2" class="st4" width="4.4" height="4.4"/>
				<path class="st4" d="M131.6,178.4v22h22v-22H131.6z M149.2,196H136v-13.2h13.2V196z"/>
				<rect x="140.4" y="187.2" class="st4" width="4.4" height="4.4"/>
			</g>
		</g>
		<g>
			<g>
				<text transform="matrix(1 0 0 1 202.4553 150.3297)" class="st1 st5 st6">www</text>
			</g>
			<path class="st1" d="M230.6,137.7h-34.7c-3.2-5.6-9.3-9.4-16.2-9.4c-8.1,0-15,5.2-17.6,12.4c0,0.1,0,0.1-0.1,0.2
				c-0.7,1.9-1,4-1,6.1c0,2.2,0.4,4.2,1,6.1c0,0.1,0,0.1,0.1,0.2c2.6,7.2,9.5,12.4,17.6,12.4c6.9,0,12.9-3.8,16.2-9.4h34.7
				c5.1,0,9.3-4.2,9.3-9.3S235.8,137.7,230.6,137.7z M195.1,151.5h-8.4c0.1-1.5,0.2-3,0.2-4.4c0-1.5-0.1-3-0.2-4.4h8.4
				c0.4,1.4,0.6,2.9,0.6,4.4C195.7,148.6,195.5,150.1,195.1,151.5z M194,139.9h-7.7c-0.5-3.3-1.3-6.2-2.4-8.3
				C188.3,132.8,192,135.9,194,139.9z M184.2,147c0,1.5-0.1,3-0.2,4.4h-8.5c-0.1-1.4-0.2-2.9-0.2-4.4c0-1.5,0.1-3,0.2-4.4h8.5
				C184.1,144,184.2,145.5,184.2,147z M176.9,135.2c1-2.9,2.1-4.2,2.8-4.2c0.7,0,1.9,1.3,2.8,4.2c0.5,1.4,0.8,3,1.1,4.7h-7.8
				C176.1,138.2,176.4,136.6,176.9,135.2z M175.5,131.6c-1.1,2.1-2,5-2.4,8.3h-7.7C167.4,135.9,171.1,132.8,175.5,131.6z M163.7,147
				c0-1.5,0.2-3,0.6-4.4h8.4c-0.1,1.5-0.2,3-0.2,4.4c0,1.5,0.1,3,0.2,4.4h-8.4C163.9,150.1,163.7,148.6,163.7,147z M165.4,154.1h7.7
				c0.5,3.3,1.3,6.2,2.4,8.3C171.1,161.3,167.4,158.2,165.4,154.1z M182.5,158.9c-1,2.9-2.1,4.2-2.8,4.2c-0.7,0-1.9-1.3-2.8-4.2
				c-0.5-1.4-0.8-3-1.1-4.7h7.8C183.4,155.9,183,157.5,182.5,158.9z M183.9,162.5c1.1-2.1,2-5,2.4-8.3h7.7
				C192,158.2,188.3,161.3,183.9,162.5z M230.6,154.2H197c0.1-0.3,0.2-0.5,0.3-0.8c0-0.1,0-0.1,0.1-0.2c0.7-1.9,1-4,1-6.1
				c0-2.2-0.4-4.2-1-6.1c0-0.1,0-0.1-0.1-0.2c-0.1-0.3-0.2-0.5-0.3-0.8h33.7c3.9,0,7.1,3.2,7.1,7.1
				C237.8,151,234.6,154.2,230.6,154.2z"/>
		</g>
		<g>
			<path class="st4" d="M94.6,142.7l-2.1-0.5c-0.1-0.5-0.2-1-0.4-1.6l1.5-1.4c0.3-0.2,0.3-0.6,0.2-0.9c-0.4-1-1-1.9-1.6-2.8
				c-0.2-0.3-0.6-0.4-0.9-0.3l-2,0.6c-0.4-0.4-0.7-0.8-1.2-1.1l0.6-2c0.1-0.3,0-0.7-0.3-0.9c-0.4-0.3-0.9-0.6-1.4-0.9v-14.6
				c0-2.3-1.9-4.1-4.1-4.1h-33c-2.3,0-4.1,1.9-4.1,4.1v21.5c0,2.3,1.9,4.1,4.1,4.1h8.7l-2.7,7.4h-4.4c-0.5,0-0.8,0.4-0.8,0.8
				c0,2.3,1.9,4.1,4.1,4.1H65c0.1,0.2,0.2,0.4,0.4,0.6c0.2,0.3,0.6,0.4,0.9,0.3l2-0.6c0.4,0.4,0.7,0.8,1.2,1.1l-0.6,2
				c-0.1,0.3,0,0.7,0.3,0.9c0.9,0.6,1.8,1.2,2.8,1.6c0.3,0.1,0.7,0.1,0.9-0.2l1.4-1.5c0.5,0.2,1,0.3,1.6,0.4l0.5,2.1
				c0.1,0.3,0.4,0.6,0.7,0.6c0.6,0.1,1.1,0.1,1.6,0.1s1.1,0,1.6-0.1c0.4,0,0.6-0.3,0.7-0.6l0.5-2.1c0.5-0.1,1.1-0.2,1.6-0.4l1.4,1.5
				c0.2,0.3,0.6,0.3,0.9,0.2c1-0.4,1.9-1,2.8-1.6c0.3-0.2,0.4-0.6,0.3-0.9l-0.6-2c0.4-0.4,0.8-0.7,1.2-1.1l2,0.6
				c0.3,0.1,0.7,0,0.9-0.3c0.6-0.9,1.2-1.8,1.6-2.8c0.1-0.3,0.1-0.7-0.2-0.9l-1.5-1.4c0.2-0.5,0.3-1,0.4-1.6l2.1-0.5
				c0.3-0.1,0.6-0.4,0.6-0.7c0.1-0.6,0.1-1.1,0.1-1.6s0-1.1-0.1-1.6C95.2,143.1,94.9,142.8,94.6,142.7L94.6,142.7z M49.9,113.7h33
				c1.4,0,2.5,1.1,2.5,2.5V130c-0.3-0.1-0.6,0-0.8,0.2l-1.4,1.5c-0.5-0.2-1-0.3-1.6-0.4l-0.5-2.1c-0.1-0.3-0.4-0.6-0.7-0.6
				c-1.1-0.1-2.2-0.1-3.3,0c-0.4,0-0.6,0.3-0.7,0.6l-0.5,2.1c-0.5,0.1-1.1,0.2-1.6,0.4l-1.4-1.5c-0.2-0.3-0.6-0.3-0.9-0.2
				c-1,0.4-1.9,1-2.8,1.6c-0.3,0.2-0.4,0.6-0.3,0.9l0.3,0.9H52.4v-9.9h8.3V122h-8.3v-5h28.1v9.9h1.7v-10.7c0-0.5-0.4-0.8-0.8-0.8
				H51.6c-0.5,0-0.8,0.4-0.8,0.8v17.3h-3.3v-17.3C47.4,114.8,48.5,113.7,49.9,113.7L49.9,113.7z M68.9,135.2
				c-0.2,0.2-0.4,0.4-0.6,0.6l-1.9-0.6H68.9z M47.4,137.6v-2.5h18.3c-0.1,0.1-0.3,0.1-0.4,0.3c-0.6,0.9-1.2,1.8-1.6,2.8
				c-0.1,0.3-0.1,0.7,0.2,0.9l1,0.9h-15C48.5,140.1,47.4,139,47.4,137.6L47.4,137.6z M60.4,141.8h4.8c0,0.2-0.1,0.3-0.1,0.5
				l-2.1,0.5c-0.3,0.1-0.6,0.4-0.6,0.7c-0.1,0.6-0.1,1.1-0.1,1.6s0,1.1,0.1,1.6c0,0.4,0.3,0.6,0.6,0.7l2.1,0.5
				c0.1,0.4,0.2,0.9,0.3,1.3h-7.7L60.4,141.8z M54.9,152.5c-1.1,0-2-0.7-2.3-1.7H64l-0.1,0.1c-0.3,0.2-0.3,0.6-0.2,0.9
				c0.1,0.2,0.2,0.4,0.3,0.6H54.9z M93.6,146l-2,0.5c-0.3,0.1-0.6,0.3-0.6,0.7c-0.1,0.8-0.3,1.6-0.6,2.3c-0.1,0.3,0,0.7,0.2,0.9
				l1.5,1.4c-0.3,0.5-0.6,1-0.9,1.5l-1.9-0.6c-0.3-0.1-0.7,0-0.9,0.3c-0.5,0.6-1.1,1.2-1.7,1.7c-0.3,0.2-0.4,0.6-0.3,0.9l0.6,1.9
				c-0.5,0.3-1,0.6-1.5,0.9l-1.4-1.5c-0.2-0.2-0.6-0.3-0.9-0.2c-0.7,0.3-1.5,0.5-2.3,0.6c-0.3,0.1-0.6,0.3-0.7,0.6l-0.5,2
				c-0.6,0-1.2,0-1.8,0l-0.5-2c-0.1-0.3-0.3-0.6-0.7-0.6c-0.8-0.1-1.6-0.3-2.3-0.6c-0.3-0.1-0.7,0-0.9,0.2l-1.4,1.5
				c-0.5-0.3-1-0.6-1.5-0.9l0.6-1.9c0.1-0.3,0-0.7-0.3-0.9c-0.6-0.5-1.2-1.1-1.7-1.7c-0.2-0.3-0.6-0.4-0.9-0.3l-1.9,0.6
				c-0.3-0.5-0.6-1-0.9-1.5l1.5-1.4c0.2-0.2,0.3-0.6,0.2-0.9c-0.3-0.8-0.5-1.5-0.6-2.3c-0.1-0.3-0.3-0.6-0.6-0.7l-2-0.5
				c0-0.3,0-0.6,0-0.9c0-0.3,0-0.6,0-0.9l2-0.5c0.3-0.1,0.6-0.3,0.6-0.7c0.1-0.8,0.3-1.6,0.6-2.3c0.1-0.3,0-0.7-0.2-0.9l-1.5-1.4
				c0.3-0.5,0.6-1,0.9-1.5l1.9,0.6c0.3,0.1,0.7,0,0.9-0.3c0.5-0.6,1.1-1.2,1.7-1.7c0.3-0.2,0.4-0.6,0.3-0.9l-0.6-1.9
				c0.5-0.3,1-0.6,1.5-0.9l1.4,1.5c0.2,0.2,0.6,0.3,0.9,0.2c0.7-0.3,1.5-0.5,2.3-0.6c0.3-0.1,0.6-0.3,0.7-0.6l0.5-2
				c0.6,0,1.2,0,1.8,0l0.5,2c0.1,0.3,0.3,0.6,0.7,0.6c0.8,0.1,1.6,0.3,2.3,0.6c0.3,0.1,0.7,0,0.9-0.2l1.4-1.5c0.5,0.3,1,0.6,1.5,0.9
				l-0.6,1.9c-0.1,0.3,0,0.7,0.3,0.9c0.6,0.5,1.2,1.1,1.7,1.7c0.2,0.3,0.6,0.4,0.9,0.3l1.9-0.6c0.3,0.5,0.6,1,0.9,1.5l-1.5,1.4
				c-0.2,0.2-0.3,0.6-0.2,0.9c0.3,0.8,0.5,1.5,0.6,2.3c0.1,0.3,0.3,0.6,0.6,0.7l2,0.5c0,0.3,0,0.6,0,0.9
				C93.7,145.4,93.6,145.7,93.6,146L93.6,146z"/>
			<path class="st4" d="M84.6,145.1c0-3.2-2.6-5.8-5.8-5.8c-3.2,0-5.8,2.6-5.8,5.8s2.6,5.8,5.8,5.8C82,150.9,84.6,148.3,84.6,145.1z
				 M78.8,149.2c-2.3,0-4.1-1.9-4.1-4.1c0-2.3,1.9-4.1,4.1-4.1c2.3,0,4.1,1.9,4.1,4.1C82.9,147.4,81,149.2,78.8,149.2z"/>
			<path class="st4" d="M72,140.2l-1.3-1c-0.3,0.5-0.7,1-0.9,1.5l1.5,0.7C71.5,141,71.7,140.6,72,140.2z"/>
			<path class="st4" d="M78.4,136.8l-0.1-1.7c-0.6,0-1.2,0.1-1.8,0.2l0.4,1.6C77.4,136.9,77.9,136.8,78.4,136.8z"/>
			<path class="st4" d="M84.9,137.3l-1,1.3c0.4,0.3,0.8,0.7,1.1,1l1.2-1.1C85.8,138,85.4,137.6,84.9,137.3L84.9,137.3z"/>
			<path class="st4" d="M70.8,147.3l-1.6,0.4c0.2,0.6,0.4,1.1,0.6,1.7l1.5-0.7C71.1,148.2,71,147.7,70.8,147.3L70.8,147.3z"/>
			<path class="st4" d="M74.8,137.8l-0.8-1.5c-0.5,0.3-1,0.6-1.5,1l1,1.3C74,138.3,74.4,138,74.8,137.8L74.8,137.8z"/>
			<path class="st4" d="M86.9,146.5l1.6,0.3c0.1-0.6,0.2-1.2,0.2-1.8v0l-1.7,0C87,145.6,87,146.1,86.9,146.5z"/>
			<path class="st4" d="M85.5,149.9l1.3,1c0.3-0.5,0.7-1,0.9-1.5l-1.5-0.7C86,149.1,85.8,149.5,85.5,149.9L85.5,149.9z"/>
			<path class="st4" d="M86.7,142.8l1.6-0.4c-0.2-0.6-0.4-1.1-0.6-1.7l-1.5,0.7C86.4,141.9,86.6,142.4,86.7,142.8z"/>
			<path class="st4" d="M82.7,152.4l0.8,1.5c0.5-0.3,1-0.6,1.5-1l-1-1.3C83.5,151.9,83.1,152.1,82.7,152.4L82.7,152.4z"/>
			<path class="st4" d="M72.6,150.5l-1.2,1.1c0.4,0.4,0.8,0.9,1.3,1.2l1-1.3C73.3,151.2,72.9,150.9,72.6,150.5L72.6,150.5z"/>
			<path class="st4" d="M82.6,135.9c-0.5-0.2-1.1-0.4-1.7-0.5l-0.4,1.6c0.5,0.1,1,0.3,1.4,0.5L82.6,135.9z"/>
			<path class="st4" d="M70.7,143.6l-1.6-0.3c-0.1,0.6-0.2,1.2-0.2,1.7v0l1.7,0C70.5,144.6,70.6,144.1,70.7,143.6z"/>
			<path class="st4" d="M75.3,119.7l-1.2,1.2l1.9,1.9H65.6c-2.3,0-4.1,1.9-4.1,4.1v5h1.7v-5c0-1.4,1.1-2.5,2.5-2.5H76l-1.9,1.9
				l1.2,1.2l3.3-3.3c0.3-0.3,0.3-0.8,0-1.2L75.3,119.7z"/>
			<path class="st4" d="M54,118.6h1.7v1.7H54V118.6z"/>
			<path class="st4" d="M57.3,118.6H59v1.7h-1.7V118.6z"/>
			<path class="st4" d="M60.6,118.6h1.7v1.7h-1.7V118.6z"/>
		</g>
	</g>
</g>
</svg>
