<svg xmlns="http://www.w3.org/2000/svg" xmlns:xlink="http://www.w3.org/1999/xlink" width="60" height="60" viewBox="0 0 60 60">
  <defs>
    <linearGradient id="linear-gradient" x1="0.5" x2="0.5" y2="1" gradientUnits="objectBoundingBox">
      <stop offset="0" stop-color="#510016"/>
      <stop offset="0.021" stop-color="#510016"/>
      <stop offset="1" stop-color="#8b0016"/>
    </linearGradient>
    <clipPath id="clip-انستغرام">
      <rect width="60" height="60"/>
    </clipPath>
  </defs>
  <g id="انستغرام" clip-path="url(#clip-انستغرام)">
    <rect width="60" height="60" fill="#fff"/>
    <g id="Group_3258" data-name="Group 3258" transform="translate(0.656 0.139)">
      <path id="Path_19697" data-name="Path 19697" d="M844.953,528.1h0a30,30,0,0,1-30-30h0a30,30,0,0,1,30-30h0a30,30,0,0,1,30,30h0A30,30,0,0,1,844.953,528.1Z" transform="translate(-814.954 -468.1)" fill="#fafafa"/>
      <g id="Group_3257" data-name="Group 3257" transform="translate(16.314 16.314)">
        <path id="Path_19698" data-name="Path 19698" d="M837.236,479.162c3.654,0,4.087.014,5.531.08a7.549,7.549,0,0,1,2.541.472,4.523,4.523,0,0,1,2.6,2.6,7.58,7.58,0,0,1,.472,2.541c.066,1.444.08,1.877.08,5.531s-.014,4.087-.08,5.53a7.583,7.583,0,0,1-.472,2.542,4.533,4.533,0,0,1-2.6,2.6,7.558,7.558,0,0,1-2.541.471c-1.444.066-1.876.08-5.531.08s-4.087-.014-5.53-.08a7.567,7.567,0,0,1-2.542-.471,4.543,4.543,0,0,1-2.6-2.6,7.561,7.561,0,0,1-.471-2.542c-.066-1.443-.08-1.876-.08-5.53s.014-4.087.08-5.531a7.558,7.558,0,0,1,.471-2.541,4.533,4.533,0,0,1,2.6-2.6,7.557,7.557,0,0,1,2.542-.472c1.443-.066,1.876-.08,5.53-.08m0-2.466c-3.717,0-4.183.016-5.643.083a10.062,10.062,0,0,0-3.322.636,7,7,0,0,0-4,4,10.024,10.024,0,0,0-.636,3.322c-.067,1.46-.083,1.925-.083,5.643s.016,4.183.083,5.643a10.031,10.031,0,0,0,.636,3.322,6.992,6.992,0,0,0,4,4,10.03,10.03,0,0,0,3.322.636c1.46.067,1.925.083,5.643.083s4.183-.016,5.643-.083a10.022,10.022,0,0,0,3.322-.636,7,7,0,0,0,4-4,10.063,10.063,0,0,0,.636-3.322c.067-1.46.083-1.925.083-5.643s-.016-4.183-.083-5.643a10.055,10.055,0,0,0-.636-3.322,7.006,7.006,0,0,0-4-4,10.054,10.054,0,0,0-3.322-.636c-1.46-.067-1.925-.083-5.643-.083" transform="translate(-823.55 -476.696)" fill="url(#linear-gradient)"/>
        <path id="Path_19699" data-name="Path 19699" d="M835.654,481.773a7.028,7.028,0,1,0,7.028,7.028,7.027,7.027,0,0,0-7.028-7.028m0,11.59a4.562,4.562,0,1,1,4.562-4.562,4.562,4.562,0,0,1-4.562,4.562" transform="translate(-821.968 -475.114)" fill="url(#linear-gradient)"/>
        <path id="Path_19700" data-name="Path 19700" d="M841.586,481.951a1.642,1.642,0,1,1-1.642-1.642,1.642,1.642,0,0,1,1.642,1.642" transform="translate(-818.953 -475.57)" fill="url(#linear-gradient)"/>
      </g>
    </g>
  </g>
</svg>
