<svg xmlns="http://www.w3.org/2000/svg" xmlns:xlink="http://www.w3.org/1999/xlink" width="194.99" height="78.04" viewBox="0 0 194.99 78.04">
  <defs>
    <clipPath id="clip-path">
      <path id="Path_19668" data-name="Path 19668" d="M197.1,426.1a1.643,1.643,0,0,1-2.323,0l-16.46-16.46a1.642,1.642,0,0,1,0-2.323l16.46-16.46a1.642,1.642,0,0,1,2.323,0l16.46,16.46a1.642,1.642,0,0,1,0,2.322Z" transform="translate(-177.836 -390.37)" fill="#ffc600"/>
    </clipPath>
    <clipPath id="clip-الشعار">
      <rect width="194.99" height="78.04"/>
    </clipPath>
  </defs>
  <g id="الشعار" clip-path="url(#clip-الشعار)">
    <g id="Group_3458" data-name="Group 3458" transform="translate(-209 -159.12)">
      <g id="Group_3234" data-name="Group 3234" transform="translate(290.987 169.404)">
        <text id="Menu" transform="translate(6 31)" fill="#fff" font-size="40" font-family="ChainlinkRegularSWFTE, Chainlink"><tspan x="0" y="0">Menu</tspan></text>
        <text id="_-_2030_-" data-name="- 2030 -" transform="translate(26.014 56.596)" fill="#fff" font-size="18" font-family="ChainlinkRegularSWFTE, Chainlink"><tspan x="0" y="0">- 2030 -</tspan></text>
      </g>
      <g id="Group_3245" data-name="Group 3245" transform="translate(209 159.12)">
        <g id="Group_3240" data-name="Group 3240">
          <path id="Path_19658" data-name="Path 19658" d="M142.786,481.707a1.348,1.348,0,0,1-1.907,0l-13.515-13.515a1.348,1.348,0,0,1,0-1.907l13.515-13.515a1.348,1.348,0,0,1,1.907,0L156.3,466.286a1.348,1.348,0,0,1,0,1.907Z" transform="translate(-123.488 -428.894)" fill="#ef2824"/>
          <g id="Group_3235" data-name="Group 3235">
            <path id="Path_19659" data-name="Path 19659" d="M190.425,419.007l.1.1a3.954,3.954,0,0,1,.281.323,4.051,4.051,0,0,1,.74,1.5,4.149,4.149,0,0,1-.644,3.451,5.4,5.4,0,0,1-.6.688L188.92,426.5l-7.121,7.316-4.453,4.562-1.2,1.228-.312.318a4.558,4.558,0,0,1-.361.316,4.45,4.45,0,0,1-.823.514,4.5,4.5,0,0,1-1.919.441c-.294,0-.609.021-.941.01a4.188,4.188,0,0,1-.516-.046,1.588,1.588,0,0,1-.163-.032.747.747,0,0,1-.11-.036c-.007,0-.014-.009-.02,0l-.015.016-.031.033-.062.065-.182.188-.507.518-1.027,1.05-2.108,2.155-4.423,4.515L157.94,454.4l-2.436,2.478-.159.161q-.09.09-.184.174a4.864,4.864,0,0,1-.4.319,4.745,4.745,0,0,1-.888.508,4.855,4.855,0,0,1-4.941-.624,4.9,4.9,0,0,1-.4-.349l-.331-.326-2.643-2.609-5.437-5.374-5.622-5.569-1.432-1.421-.36-.357c-.055-.054-.134-.133-.2-.206s-.135-.15-.2-.228a4.967,4.967,0,0,1-.649-1.024,5.036,5.036,0,0,1-.274-3.582c.029-.1.062-.2.1-.293l.052-.137a.181.181,0,0,1,.008-.018l-.021-.011h0l-.016-.014-.037-.031-.07-.064c-.048-.042-.093-.087-.139-.131l-.227-.226-.9-.895-1.811-1.8-3.663-3.648-3.712-3.7-1.873-1.871-.941-.94-.48-.482a4.806,4.806,0,0,1-1.3-2.571,4.881,4.881,0,0,1,.111-2.08,4.8,4.8,0,0,1,.976-1.836c.056-.066.115-.13.174-.193l.166-.169.3-.3.606-.6,4.805-4.791,4.721-4.7,2.325-2.31.577-.573.147-.146c.058-.056.117-.113.178-.166a4.566,4.566,0,0,1,.38-.305,4.717,4.717,0,0,1,.843-.487c.074-.033.149-.064.225-.093.038-.015.076-.029.114-.042l.015,0,.025-.005,0-.018.026-.113a5.044,5.044,0,0,1,1.324-2.386l.415-.412.819-.811,3.239-3.207,6.289-6.217,3.043-3,1.495-1.474.741-.73.368-.363.185-.182c.071-.069.143-.136.217-.2a4.885,4.885,0,0,1,2.073-1.074,4.957,4.957,0,0,1,2.293,0,4.833,4.833,0,0,1,2.013,1.022c.072.06.141.123.209.188l.1.1.088.089.344.35.685.7,10.2,10.4,4.53,4.63.269.276c.091.094.176.177.273.283a4.587,4.587,0,0,1,1.123,2.135,4.621,4.621,0,0,1-.077,2.307l-.013.046-.01.032-.021.061c-.013.042-.026.072-.04.108-.027.069-.06.139-.09.206.058.036.116.072.171.113.028.02.055.04.083.062l.041.033.05.041a5.7,5.7,0,0,1,.483.46l.87.893,1.669,1.712,3.038,3.119,4.812,4.952,4.035,4.164-4.164-4.034-4.952-4.813-3.12-3.038-1.711-1.668-.893-.871a5.151,5.151,0,0,0-.447-.407l-.076-.058c-.028-.022-.058-.043-.088-.063-.06-.042-.121-.083-.186-.122-.126-.08-.256-.157-.385-.233.061-.144.127-.293.187-.444.027-.074.062-.154.084-.224l.034-.107.016-.052.01-.04a4.022,4.022,0,0,0,.117-.647,3.951,3.951,0,0,0-.1-1.33,3.871,3.871,0,0,0-.99-1.781c-.077-.08-.176-.174-.266-.263l-.276-.27-4.631-4.53-10.4-10.2-.7-.685-.35-.344-.086-.085-.077-.073c-.052-.048-.105-.095-.16-.139a3.6,3.6,0,0,0-1.514-.738,3.7,3.7,0,0,0-1.706.028,3.59,3.59,0,0,0-1.512.814l-5.909,5.982-6.217,6.289-3.207,3.239-.811.819-.4.406a3.451,3.451,0,0,0-.756,1.186,3.506,3.506,0,0,0-.136.453l-.013.058-.011.054c0,.023-.009.046-.013.07-.015.093-.029.188-.038.285l-.059.577c-.254.063-.519.124-.774.193-.061.016-.13.042-.178.057-.025.009-.05.018-.075.029-.05.019-.1.04-.147.063a3.129,3.129,0,0,0-.553.325,2.932,2.932,0,0,0-.25.2c-.04.036-.079.074-.117.112l-.141.141-.573.577-2.31,2.325-4.7,4.721-4.791,4.806-.6.606-.3.3-.135.137c-.038.041-.076.083-.113.126a3.085,3.085,0,0,0-.626,1.18,3.166,3.166,0,0,0-.07,1.345,3.088,3.088,0,0,0,.834,1.653l.461.462.94.941,1.871,1.873,3.7,3.712,3.648,3.662,1.8,1.811.895.9.221.222c.03.029.06.059.091.087l.046.042.068.058c.081.068.166.127.251.189l.274.175.548.344c-.172.3-.367.615-.529.919-.037.077-.075.153-.105.231l-.043.109c-.024.065-.046.13-.066.2a3.4,3.4,0,0,0,.168,2.417,3.367,3.367,0,0,0,.432.694c.043.054.088.1.134.156s.088.094.153.159l.357.36,1.421,1.432,5.569,5.622,5.374,5.437,2.609,2.643.318.323a3.656,3.656,0,0,0,.285.256,3.491,3.491,0,0,0,2.1.772,3.533,3.533,0,0,0,1.472-.272,3.477,3.477,0,0,0,.654-.361,3.583,3.583,0,0,0,.295-.23c.047-.041.093-.083.138-.127l.152-.149,2.475-2.439,4.767-4.692,4.508-4.429L168.5,442.3l1.049-1.029.518-.507.326-.322.192-.189.1-.094.048-.047a.19.19,0,0,1,.05-.025c.112.05.227.1.342.143a1.328,1.328,0,0,0,.293.084,3.341,3.341,0,0,0,.41.045c.286.016.586.008.9.01a3.7,3.7,0,0,0,2.586-.992l.307-.3,1.228-1.2,4.563-4.453,7.316-7.121,1.422-1.381a5.255,5.255,0,0,0,.6-.648,3.994,3.994,0,0,0,.8-2.11,4.1,4.1,0,0,0-.084-1.215,4.022,4.022,0,0,0-.684-1.508,4.075,4.075,0,0,0-.269-.331Z" transform="translate(-116.299 -380.4)" fill="#fff"/>
          </g>
          <g id="Group_3238" data-name="Group 3238" transform="translate(20.077 3.253)">
            <path id="Path_19660" data-name="Path 19660" d="M197.1,426.1a1.643,1.643,0,0,1-2.323,0l-16.46-16.46a1.642,1.642,0,0,1,0-2.323l16.46-16.46a1.642,1.642,0,0,1,2.323,0l16.46,16.46a1.642,1.642,0,0,1,0,2.322Z" transform="translate(-177.836 -390.37)" fill="#ffc600"/>
            <g id="Group_3237" data-name="Group 3237" clip-path="url(#clip-path)">
              <g id="Group_3236" data-name="Group 3236" transform="translate(8.01 7.818)">
                <circle id="Ellipse_66" data-name="Ellipse 66" cx="0.327" cy="0.327" r="0.327" transform="translate(5.878 1.306)" fill="#47210b"/>
                <path id="Path_19661" data-name="Path 19661" d="M224.407,418.336h4.572v.653h-4.572Z" transform="translate(-217.222 -417.03)" fill="#47210b"/>
                <path id="Path_19662" data-name="Path 19662" d="M232.415,426.344h3.266V427h-3.266Z" transform="translate(-222.618 -422.425)" fill="#47210b"/>
                <path id="Path_19663" data-name="Path 19663" d="M240.423,430.348h.653V431h-.653Z" transform="translate(-228.013 -425.123)" fill="#47210b"/>
                <path id="Path_19664" data-name="Path 19664" d="M232.415,430.348h1.96V431h-1.96Z" transform="translate(-222.618 -425.123)" fill="#47210b"/>
                <path id="Path_19665" data-name="Path 19665" d="M232.415,434.352h3.266v.653h-3.266Z" transform="translate(-222.618 -427.821)" fill="#47210b"/>
                <path id="Path_19666" data-name="Path 19666" d="M232.415,438.356h3.266v.653h-3.266Z" transform="translate(-222.618 -430.518)" fill="#47210b"/>
                <path id="Path_19667" data-name="Path 19667" d="M222.634,434.5v-6.292l-1.364-1.023-.42-1.05a2.921,2.921,0,0,0-.651-.987l-2.138-2.138v-7.049a1.635,1.635,0,0,0-1.633-1.633h-10.45a1.635,1.635,0,0,0-1.633,1.633v7.648l-.9.9a3.589,3.589,0,0,0-1.058,2.555,3.664,3.664,0,0,0,.049.594l.508,3.048a5.962,5.962,0,0,0,.346,1.238l.4,1.007v1.624h4.572v-1.57l.225-.563c.063-.158.116-.318.166-.48h9.751Zm-.653-1.154-4.045-2.427,3.1-3.1.949.712Zm-1.737-6.968.374.935-3.325,3.325-1.391-.2a2.285,2.285,0,0,1-1.14-.507l-.663-.552a2.945,2.945,0,0,0-1.262-.612V428.7h-.668a.312.312,0,0,1-.174-.571l.122-.081a1.95,1.95,0,0,1,2.461.244l.313.312.462-.462-.313-.313-4.383-4.383a.366.366,0,1,1,.518-.518l2.613,2.612,1.43,1.43.462-.462-1.43-1.43a.366.366,0,0,1,.259-.625.365.365,0,0,1,.259.107l1.43,1.43.462-.462-1.43-1.43a.366.366,0,1,1,.518-.518l.653.653.777.777.462-.462-.777-.777a.366.366,0,1,1,.518-.518l2.357,2.357a2.27,2.27,0,0,1,.506.767Zm-8.075,2.973h.015v.653h-1.959v-.653Zm-3.5-2.613h1.556v-1.96h-1.96v.921a1.086,1.086,0,0,0-1.768.56l-.191.765V417.6h9.8v5.436a9.592,9.592,0,0,0-2.524,1.376l-1.941-1.941a1.041,1.041,0,0,0-.107-.088v-4.129h-4.572v4.572h3.01a.956.956,0,0,0-.025.653h-2.985v.653h3.457l.653.653h-.192v1.96h1.96v-.191l.526.526c-.054,0-.108-.008-.163-.008a2.588,2.588,0,0,0-1.249.327h-3.233Zm.25-.653v-.653h.653v.653Zm0-7.185h.653v.653h-.653Zm1.306,1.306V418.9h.653v3.266h-3.266V418.9h.653v1.306Zm1.306,5.225h.192l.462.462v.191h-.653ZM205,415.966a.981.981,0,0,1,.98-.98h10.45a.981.981,0,0,1,.98.98v6.577a.956.956,0,0,0-.653.025v-5.623h-11.1v11.988c-.041.089-.081.18-.125.267a.279.279,0,0,1-.528-.124Zm2.613,17.962h-3.266v-.653h3.266Zm.272-1.722-.166.416h-3.455l-.366-.915a5.335,5.335,0,0,1-.309-1.1l-.508-3.048a3,3,0,0,1-.04-.486,2.939,2.939,0,0,1,.867-2.092l.439-.44v4.539a.932.932,0,0,0,1.766.417,10.238,10.238,0,0,0,.774-2.092l.245-.979a.439.439,0,0,1,.863.073l.255,3.322c.01.136.015.272.015.409a5.31,5.31,0,0,1-.381,1.979Zm.933-.89a5.974,5.974,0,0,0,.1-1.089c0-.153-.006-.306-.018-.459l-.132-1.718h2.505a.881.881,0,0,0-.014.653h-1.689v1.96h3.266V429.45a2.281,2.281,0,0,1,.844.436l.663.553a2.938,2.938,0,0,0,1.466.652l1.487.212.021.013Z" transform="translate(-202.386 -414.333)" fill="#47210b"/>
              </g>
            </g>
          </g>
          <g id="Group_3239" data-name="Group 3239" transform="translate(18.322 40.076)">
            <path id="Path_19669" data-name="Path 19669" d="M190.908,537.453a1.573,1.573,0,0,1-2.224,0l-15.766-15.767a1.572,1.572,0,0,1,0-2.224L188.684,503.7a1.573,1.573,0,0,1,2.224,0l15.767,15.767a1.572,1.572,0,0,1,0,2.224Z" transform="translate(-172.457 -503.235)" fill="#47210b"/>
          </g>
          <path id="Path_19670" data-name="Path 19670" d="M256.8,489.868a1.474,1.474,0,0,1-2.085,0l-14.779-14.779a1.474,1.474,0,0,1,0-2.085l14.779-14.779a1.475,1.475,0,0,1,2.085,0L271.575,473a1.474,1.474,0,0,1,0,2.085Z" transform="translate(-199.304 -432.542)" fill="#b2cd2a"/>
        </g>
        <g id="Group_3242" data-name="Group 3242" transform="translate(28.442 50.491)">
          <g id="Group_3241" data-name="Group 3241">
            <path id="Path_19671" data-name="Path 19671" d="M203.474,565.255h6.434v-6.434h-6.434Zm1.287-5.147h3.86v3.85h-3.86Z" transform="translate(-203.474 -551.101)" fill="#fff"/>
            <rect id="Rectangle_235" data-name="Rectangle 235" width="1.287" height="1.287" transform="translate(2.574 10.294)" fill="#fff"/>
            <rect id="Rectangle_236" data-name="Rectangle 236" width="1.287" height="1.287" transform="translate(10.294 12.868)" fill="#fff"/>
            <rect id="Rectangle_237" data-name="Rectangle 237" width="1.287" height="1.287" transform="translate(12.868 12.868)" fill="#fff"/>
            <path id="Path_19672" data-name="Path 19672" d="M232.285,560.108H231v-1.287h-3.86v6.434h1.287v-3.861h1.287v1.287h3.861v-3.861h-1.287Z" transform="translate(-219.417 -551.101)" fill="#fff"/>
            <path id="Path_19673" data-name="Path 19673" d="M203.474,541.592h6.434v-6.434h-6.434Zm1.287-5.147h3.86v3.86h-3.86Z" transform="translate(-203.474 -535.158)" fill="#fff"/>
            <rect id="Rectangle_238" data-name="Rectangle 238" width="1.287" height="1.287" transform="translate(2.574 2.573)" fill="#fff"/>
            <path id="Path_19674" data-name="Path 19674" d="M227.138,535.158v6.434h6.434v-6.434Zm5.147,5.147h-3.86v-3.86h3.86Z" transform="translate(-219.417 -535.158)" fill="#fff"/>
            <rect id="Rectangle_239" data-name="Rectangle 239" width="1.287" height="1.287" transform="translate(10.294 2.573)" fill="#fff"/>
          </g>
        </g>
        <g id="Group_3243" data-name="Group 3243" transform="translate(44.765 35.877)">
          <text id="www" transform="translate(12.09 4.501)" fill="#47210b" font-size="2" font-family="Roboto-Black, Roboto" font-weight="800" letter-spacing="0.05em"><tspan x="0" y="0">www</tspan></text>
          <path id="Path_19675" data-name="Path 19675" d="M273.82,493.1H263.679a5.451,5.451,0,0,0-9.854.878.368.368,0,0,0-.017.049,5.455,5.455,0,0,0,0,3.588.428.428,0,0,0,.017.049,5.451,5.451,0,0,0,9.854.878H273.82a2.721,2.721,0,0,0,0-5.442Zm-10.376,4.017H260.98c.037-.425.055-.861.055-1.3s-.018-.871-.055-1.3h2.465a4.675,4.675,0,0,1,0,2.593Zm-.3-3.374H260.89a7.515,7.515,0,0,0-.712-2.431A4.693,4.693,0,0,1,263.139,493.74Zm-2.886,2.078c0,.445-.02.88-.057,1.3h-2.478c-.038-.417-.057-.851-.057-1.3s.02-.88.057-1.3H260.2C260.233,494.938,260.253,495.372,260.253,495.817Zm-2.119-3.455c.28-.84.615-1.216.822-1.216s.543.376.823,1.216a8.542,8.542,0,0,1,.322,1.378h-2.288A8.522,8.522,0,0,1,258.134,492.362Zm-.4-1.053a7.507,7.507,0,0,0-.712,2.431h-2.249A4.692,4.692,0,0,1,257.735,491.309Zm-3.45,4.509a4.645,4.645,0,0,1,.183-1.3h2.465c-.037.425-.055.861-.055,1.3s.019.871.055,1.3h-2.465A4.646,4.646,0,0,1,254.286,495.817Zm.488,2.078h2.249a7.5,7.5,0,0,0,.712,2.431A4.692,4.692,0,0,1,254.774,497.9Zm5,1.378c-.28.84-.615,1.216-.823,1.216s-.542-.376-.822-1.216a8.56,8.56,0,0,1-.322-1.378H260.1A8.548,8.548,0,0,1,259.779,499.273Zm.4,1.053a7.51,7.51,0,0,0,.712-2.431h2.249A4.693,4.693,0,0,1,260.178,500.326ZM273.82,497.9h-9.825q.049-.118.093-.239a.368.368,0,0,0,.017-.049,5.45,5.45,0,0,0,0-3.588.364.364,0,0,0-.017-.049q-.044-.121-.093-.239h9.825a2.082,2.082,0,0,1,0,4.164Z" transform="translate(-253.504 -490.365)" fill="#47210b"/>
        </g>
        <g id="Group_3244" data-name="Group 3244" transform="translate(11.115 31.117)">
          <path id="Path_19676" data-name="Path 19676" d="M164.617,484.724l-.6-.141a4.009,4.009,0,0,0-.122-.456l.449-.421a.241.241,0,0,0,.055-.275,4.841,4.841,0,0,0-.48-.829.241.241,0,0,0-.266-.09l-.584.178a4.07,4.07,0,0,0-.336-.336l.178-.584a.241.241,0,0,0-.089-.266q-.195-.14-.4-.261V476.98a1.206,1.206,0,0,0-1.2-1.2h-9.639a1.206,1.206,0,0,0-1.2,1.2v6.265a1.206,1.206,0,0,0,1.2,1.2h2.548l-.789,2.169h-1.277a.241.241,0,0,0-.241.241,1.206,1.206,0,0,0,1.2,1.2h2.975c.035.054.067.109.1.161a.241.241,0,0,0,.266.09l.584-.177a4.117,4.117,0,0,0,.336.336l-.178.584a.241.241,0,0,0,.09.265,4.792,4.792,0,0,0,.829.481.24.24,0,0,0,.275-.055l.421-.449a4.007,4.007,0,0,0,.456.122l.141.6a.241.241,0,0,0,.211.185c.162.016.324.024.479.024s.316-.008.479-.024a.241.241,0,0,0,.211-.185l.141-.6a4.111,4.111,0,0,0,.456-.122l.421.449a.241.241,0,0,0,.275.055,4.822,4.822,0,0,0,.829-.481.24.24,0,0,0,.09-.266l-.177-.584a4.133,4.133,0,0,0,.336-.336l.584.178a.242.242,0,0,0,.266-.09,4.844,4.844,0,0,0,.48-.829.241.241,0,0,0-.055-.275l-.449-.421a4.068,4.068,0,0,0,.122-.456l.6-.141a.241.241,0,0,0,.185-.211c.016-.162.024-.323.024-.479s-.008-.317-.024-.479a.241.241,0,0,0-.185-.211Zm-13.044-8.467h9.639a.724.724,0,0,1,.723.723v4.029a.239.239,0,0,0-.22.07l-.421.449a4.03,4.03,0,0,0-.456-.122l-.141-.6a.241.241,0,0,0-.211-.185,4.75,4.75,0,0,0-.958,0,.241.241,0,0,0-.211.185l-.141.6a4.049,4.049,0,0,0-.456.122l-.421-.449a.241.241,0,0,0-.275-.055,4.823,4.823,0,0,0-.829.481.241.241,0,0,0-.09.266l.082.27H152.3v-2.892h2.41v-.482H152.3v-1.446h8.193v2.892h.482V476.98a.241.241,0,0,0-.241-.241h-8.675a.241.241,0,0,0-.241.241v5.06h-.964v-5.06a.724.724,0,0,1,.723-.723Zm5.542,6.265c-.056.056-.115.109-.168.168l-.552-.168Zm-6.265.723v-.723H156.2a.239.239,0,0,0-.1.08,4.833,4.833,0,0,0-.48.829.24.24,0,0,0,.055.275l.279.262h-4.378a.724.724,0,0,1-.723-.723Zm3.783,1.2h1.4c-.011.044-.022.088-.031.133l-.6.141a.241.241,0,0,0-.185.211c-.016.162-.024.324-.024.479s.008.316.024.479a.241.241,0,0,0,.185.211l.6.141c.026.127.062.251.1.374h-2.255Zm-1.615,3.132a.724.724,0,0,1-.682-.482h3.357l-.022.021a.241.241,0,0,0-.055.275c.029.064.064.124.1.186Zm11.317-1.908-.585.137a.241.241,0,0,0-.183.2,3.627,3.627,0,0,1-.181.677.241.241,0,0,0,.061.26l.435.408a4.343,4.343,0,0,1-.261.451l-.566-.172a.24.24,0,0,0-.256.077,3.654,3.654,0,0,1-.5.5.24.24,0,0,0-.077.256l.172.567a4.467,4.467,0,0,1-.451.261l-.408-.435a.24.24,0,0,0-.26-.061,3.62,3.62,0,0,1-.678.181.241.241,0,0,0-.2.183l-.136.585a4.239,4.239,0,0,1-.522,0l-.136-.585a.241.241,0,0,0-.2-.183,3.654,3.654,0,0,1-.677-.181.241.241,0,0,0-.261.061l-.408.435a4.362,4.362,0,0,1-.451-.261l.172-.566a.241.241,0,0,0-.077-.256,3.638,3.638,0,0,1-.5-.5.241.241,0,0,0-.256-.077l-.566.172a4.337,4.337,0,0,1-.261-.451l.436-.408a.241.241,0,0,0,.061-.26,3.606,3.606,0,0,1-.181-.678.24.24,0,0,0-.183-.2l-.585-.137c-.006-.088-.009-.175-.009-.26s0-.172.008-.261l.585-.137a.241.241,0,0,0,.183-.2,3.575,3.575,0,0,1,.181-.677.24.24,0,0,0-.061-.261l-.436-.408a4.37,4.37,0,0,1,.261-.451l.567.172a.242.242,0,0,0,.256-.078,3.657,3.657,0,0,1,.5-.5.241.241,0,0,0,.077-.256l-.172-.566a4.41,4.41,0,0,1,.451-.261l.408.436a.241.241,0,0,0,.26.061,3.6,3.6,0,0,1,.678-.181.241.241,0,0,0,.2-.183l.136-.585a4.209,4.209,0,0,1,.521,0l.136.585a.241.241,0,0,0,.2.183,3.622,3.622,0,0,1,.678.181.242.242,0,0,0,.261-.061l.408-.436a4.31,4.31,0,0,1,.451.261l-.173.566a.242.242,0,0,0,.077.256,3.642,3.642,0,0,1,.5.5.241.241,0,0,0,.256.077l.566-.172a4.348,4.348,0,0,1,.261.451l-.436.408a.241.241,0,0,0-.061.26,3.621,3.621,0,0,1,.181.678.24.24,0,0,0,.183.2l.585.137q.008.133.009.261c0,.085,0,.172-.008.261Z" transform="translate(-150.368 -475.775)" fill="#fff"/>
          <path id="Path_19677" data-name="Path 19677" d="M178.069,501.822a1.694,1.694,0,1,0-1.694,1.694A1.7,1.7,0,0,0,178.069,501.822Zm-1.694,1.21a1.21,1.21,0,1,1,1.21-1.21A1.212,1.212,0,0,1,176.375,503.032Z" transform="translate(-166.749 -492.183)" fill="#fff"/>
          <path id="Path_19678" data-name="Path 19678" d="M172.5,500.389l-.392-.284a2.888,2.888,0,0,0-.266.447l.436.209A2.453,2.453,0,0,1,172.5,500.389Z" transform="translate(-164.837 -492.167)" fill="#fff"/>
          <path id="Path_19679" data-name="Path 19679" d="M178.406,496.913l-.023-.483a2.919,2.919,0,0,0-.516.071l.109.471A2.47,2.47,0,0,1,178.406,496.913Z" transform="translate(-168.896 -489.69)" fill="#fff"/>
          <path id="Path_19680" data-name="Path 19680" d="M184.779,498.342l-.3.379a2.471,2.471,0,0,1,.315.3l.363-.32a2.968,2.968,0,0,0-.377-.358Z" transform="translate(-173.349 -490.979)" fill="#fff"/>
          <path id="Path_19681" data-name="Path 19681" d="M171.835,507.3l-.465.128a2.855,2.855,0,0,0,.183.485l.434-.21a2.367,2.367,0,0,1-.152-.4Z" transform="translate(-164.518 -497.013)" fill="#fff"/>
          <path id="Path_19682" data-name="Path 19682" d="M174.97,497.916l-.231-.425a2.944,2.944,0,0,0-.433.288l.3.378a2.464,2.464,0,0,1,.361-.24Z" transform="translate(-166.496 -490.406)" fill="#fff"/>
          <path id="Path_19683" data-name="Path 19683" d="M187.179,505.727l.474.086a2.89,2.89,0,0,0,.046-.516v-.01l-.482.01A2.421,2.421,0,0,1,187.179,505.727Z" transform="translate(-175.169 -495.658)" fill="#fff"/>
          <path id="Path_19684" data-name="Path 19684" d="M185.878,508.91l.391.285a2.887,2.887,0,0,0,.267-.447l-.436-.21a2.455,2.455,0,0,1-.222.372Z" transform="translate(-174.292 -497.849)" fill="#fff"/>
          <path id="Path_19685" data-name="Path 19685" d="M186.7,502.045l.467-.13a2.869,2.869,0,0,0-.185-.487l-.435.212A2.372,2.372,0,0,1,186.7,502.045Z" transform="translate(-174.744 -493.058)" fill="#fff"/>
          <path id="Path_19686" data-name="Path 19686" d="M183.393,511.357l.23.426a2.866,2.866,0,0,0,.434-.287l-.3-.378a2.438,2.438,0,0,1-.362.239Z" transform="translate(-172.618 -499.587)" fill="#fff"/>
          <path id="Path_19687" data-name="Path 19687" d="M173.607,510.185l-.362.318a2.943,2.943,0,0,0,.375.358l.3-.377a2.364,2.364,0,0,1-.313-.3Z" transform="translate(-165.781 -498.958)" fill="#fff"/>
          <path id="Path_19688" data-name="Path 19688" d="M182.1,496.793a2.839,2.839,0,0,0-.5-.159l-.106.472a2.379,2.379,0,0,1,.412.133Z" transform="translate(-171.344 -489.829)" fill="#fff"/>
          <path id="Path_19689" data-name="Path 19689" d="M171.567,503.839l-.475-.085a2.928,2.928,0,0,0-.045.51v.005l.482-.005A2.433,2.433,0,0,1,171.567,503.839Z" transform="translate(-164.301 -494.626)" fill="#fff"/>
          <path id="Path_19690" data-name="Path 19690" d="M168.427,482.638l-.341.341.552.552h-3.033a1.206,1.206,0,0,0-1.2,1.2v1.446h.482v-1.446a.724.724,0,0,1,.723-.723h3.033l-.552.553.341.341.964-.964a.24.24,0,0,0,0-.341Z" transform="translate(-159.823 -480.399)" fill="#fff"/>
          <path id="Path_19691" data-name="Path 19691" d="M157.753,481.683h.482v.482h-.482Z" transform="translate(-155.344 -479.755)" fill="#fff"/>
          <path id="Path_19692" data-name="Path 19692" d="M160.708,481.683h.482v.482h-.482Z" transform="translate(-157.334 -479.755)" fill="#fff"/>
          <path id="Path_19693" data-name="Path 19693" d="M163.662,481.683h.482v.482h-.482Z" transform="translate(-159.325 -479.755)" fill="#fff"/>
        </g>
      </g>
    </g>
  </g>
</svg>
