<svg xmlns="http://www.w3.org/2000/svg" xmlns:xlink="http://www.w3.org/1999/xlink" width="60" height="60" viewBox="0 0 60 60">
  <defs>
    <linearGradient id="linear-gradient" x1="0.5" x2="0.5" y2="1" gradientUnits="objectBoundingBox">
      <stop offset="0" stop-color="#510016"/>
      <stop offset="0.021" stop-color="#510016"/>
      <stop offset="1" stop-color="#8b0016"/>
    </linearGradient>
    <clipPath id="clip-موصى_به">
      <rect width="60" height="60"/>
    </clipPath>
  </defs>
  <g id="موصى_به" data-name="موصى به" clip-path="url(#clip-موصى_به)">
    <rect width="60" height="60" fill="#fff"/>
    <g id="Group_3286" data-name="Group 3286" transform="translate(-512 -528)">
      <circle id="Ellipse_76" data-name="Ellipse 76" cx="30" cy="30" r="30" transform="translate(512 528)" fill="#fff"/>
      <g id="Group_3283" data-name="Group 3283" transform="translate(-441.055 -183.709)">
        <path id="Path_19711" data-name="Path 19711" d="M981.4,756.085l-.517-1.034-.517,1.034a.883.883,0,0,1-.658.478l-1.145.173.824.811a.881.881,0,0,1,.251.773l-.19,1.141,1.027-.533a.881.881,0,0,1,.813,0l1.027.533-.189-1.141a.879.879,0,0,1,.251-.773l.824-.811-1.145-.173a.883.883,0,0,1-.658-.478Z" transform="translate(-4.885 -13.125)" fill="url(#linear-gradient)"/>
        <path id="Path_19712" data-name="Path 19712" d="M1007.653,756.085l-.517-1.034-.517,1.034a.883.883,0,0,1-.658.478l-1.145.173.824.811a.881.881,0,0,1,.251.773l-.19,1.141,1.027-.533a.881.881,0,0,1,.813,0l1.027.533-.189-1.141a.879.879,0,0,1,.251-.773l.824-.811-1.145-.173a.883.883,0,0,1-.658-.478Z" transform="translate(-17.022 -13.125)" fill="url(#linear-gradient)"/>
        <path id="Path_19713" data-name="Path 19713" d="M995.463,739.935h-7.432l.227,1.369a2.646,2.646,0,0,1-3.827,2.784l-1.376-.714-1.374.714a2.647,2.647,0,0,1-3.829-2.785l.227-1.368h-7.374a2.713,2.713,0,0,0-2.705,2.7v14.055a2.646,2.646,0,0,0,2.646,2.646h9.714l1.947,3.173a.882.882,0,0,0,1.5,0l1.947-3.173H995.4a2.713,2.713,0,0,0,2.7-2.7V742.581A2.646,2.646,0,0,0,995.463,739.935Zm-14.649,9.831-1.755,1.728.4,2.43a.883.883,0,0,1-1.277.928L976,753.717l-2.186,1.134a.883.883,0,0,1-1.277-.928l.4-2.43-1.755-1.727a.883.883,0,0,1,.488-1.5l2.436-.366,1.1-2.2a.919.919,0,0,1,1.579,0l1.1,2.2,2.436.366a.883.883,0,0,1,.488,1.5Zm14.114,0-1.755,1.728.4,2.43a.883.883,0,0,1-1.277.928l-2.186-1.134-2.186,1.134a.883.883,0,0,1-1.277-.928l.4-2.43-1.755-1.727a.883.883,0,0,1,.488-1.5l2.436-.366,1.1-2.2a.919.919,0,0,1,1.579,0l1.1,2.2,2.436.366a.883.883,0,0,1,.488,1.5Z" transform="translate(0 -6.136)" fill="url(#linear-gradient)"/>
        <path id="Path_19714" data-name="Path 19714" d="M996.673,730.379a.884.884,0,0,0-.707-.6l-2.436-.366-1.1-2.3a.919.919,0,0,0-1.579,0l-1.1,2.3-2.436.366a.882.882,0,0,0-.487,1.5l1.754,1.728-.4,2.43a.883.883,0,0,0,1.277.928l2.186-1.134,2.186,1.134a.883.883,0,0,0,1.277-.928l-.4-2.43,1.754-1.728a.882.882,0,0,0,.22-.9Z" transform="translate(-8.583)" fill="url(#linear-gradient)"/>
      </g>
    </g>
  </g>
</svg>
