<svg xmlns="http://www.w3.org/2000/svg" xmlns:xlink="http://www.w3.org/1999/xlink" width="60" height="60" viewBox="0 0 60 60">
  <defs>
    <linearGradient id="linear-gradient" x1="0.5" x2="0.5" y2="1" gradientUnits="objectBoundingBox">
      <stop offset="0" stop-color="#510016"/>
      <stop offset="0.021" stop-color="#510016"/>
      <stop offset="1" stop-color="#8b0016"/>
    </linearGradient>
    <clipPath id="clip-العروض_الخاصة">
      <rect width="60" height="60"/>
    </clipPath>
  </defs>
  <g id="العروض_الخاصة" data-name="العروض الخاصة" clip-path="url(#clip-العروض_الخاصة)">
    <rect width="60" height="60" fill="#fff"/>
    <g id="Group_3284" data-name="Group 3284" transform="translate(-512 -448)">
      <circle id="Ellipse_75" data-name="Ellipse 75" cx="30" cy="30" r="30" transform="translate(512 448)" fill="#fff"/>
      <g id="Group_3277" data-name="Group 3277" transform="translate(-381.148 -142.055)">
        <g id="Group_3276" data-name="Group 3276" transform="translate(907.138 604.049)">
          <path id="Path_19708" data-name="Path 19708" d="M952.3,626.214l-1.677-2.235-.932,6.525a2.826,2.826,0,0,1-.794,1.589l-11.478,11.478a5.271,5.271,0,0,1-3.752,1.553,5.35,5.35,0,0,1-1.242-.146,3.433,3.433,0,0,0,2.894,1.589h13.735a3.434,3.434,0,0,0,3.434-3.434V626.776A.936.936,0,0,0,952.3,626.214Z" transform="translate(-920.53 -614.604)" fill="url(#linear-gradient)"/>
          <circle id="Ellipse_78" data-name="Ellipse 78" cx="0.936" cy="0.936" r="0.936" transform="translate(18.389 13.686)" fill="url(#linear-gradient)"/>
          <circle id="Ellipse_79" data-name="Ellipse 79" cx="0.936" cy="0.936" r="0.936" transform="translate(7.793 13.686)" fill="url(#linear-gradient)"/>
          <path id="Path_19709" data-name="Path 19709" d="M922.711,631.695l11.478-11.478a.94.94,0,0,0,.265-.53l1.325-9.271a.938.938,0,0,0-.265-.794l-1.987-1.987-2.649,2.649.662.662a.936.936,0,0,1-1.325,1.324l-2.649-2.649a.937.937,0,0,1,1.325-1.325l.662.662,2.649-2.649-1.987-1.987a.938.938,0,0,0-.795-.265l-9.271,1.325a.939.939,0,0,0-.53.265l-11.478,11.478a3.438,3.438,0,0,0,0,4.856l9.713,9.712a3.438,3.438,0,0,0,4.856,0Zm3.752-15.833a2.81,2.81,0,1,1-2.809,2.81,2.813,2.813,0,0,1,2.809-2.81Zm-10.595,5.619a2.81,2.81,0,1,1,2.809-2.81A2.813,2.813,0,0,1,915.868,621.481Zm3.091,4.749A.936.936,0,0,1,918.07,625l4.415-13.244a.937.937,0,0,1,1.777.592l-4.415,13.245A.937.937,0,0,1,918.959,626.23Z" transform="translate(-907.138 -604.049)" fill="url(#linear-gradient)"/>
          <path id="Path_19710" data-name="Path 19710" d="M963.734,605.648a.936.936,0,1,0-1.324-1.324l-1.987,1.986,1.325,1.325Z" transform="translate(-935.359 -604.049)" fill="url(#linear-gradient)"/>
        </g>
      </g>
    </g>
  </g>
</svg>
