<svg xmlns="http://www.w3.org/2000/svg" xmlns:xlink="http://www.w3.org/1999/xlink" width="60" height="60" viewBox="0 0 60 60">
  <defs>
    <linearGradient id="linear-gradient" y1="0.5" x2="1" y2="0.5" gradientUnits="objectBoundingBox">
      <stop offset="0" stop-color="#510016"/>
      <stop offset="0.021" stop-color="#510016"/>
      <stop offset="1" stop-color="#8b0016"/>
    </linearGradient>
    <clipPath id="clip-انتظار_الدور">
      <rect width="60" height="60"/>
    </clipPath>
  </defs>
  <g id="انتظار_الدور" data-name="انتظار الدور" clip-path="url(#clip-انتظار_الدور)">
    <rect width="60" height="60" fill="#fff"/>
    <g id="Group_3272" data-name="Group 3272" transform="translate(-512 -755)">
      <circle id="Ellipse_79" data-name="Ellipse 79" cx="30" cy="30" r="30" transform="translate(512 755)" fill="#fff"/>
      <g id="Group_1381" data-name="Group 1381" transform="translate(-392.576 -202.432)">
        <g id="Group_1379" data-name="Group 1379" transform="translate(915.311 972.766)">
          <rect id="Rectangle_382" data-name="Rectangle 382" width="38.45" height="23.345" rx="4.966" transform="translate(0)" fill="url(#linear-gradient)"/>
          <path id="Path_4630" data-name="Path 4630" d="M956.547,1030.347h-6.18a.687.687,0,0,1-.687-.687v-1.373a.687.687,0,0,0-.687-.687H943.5a.687.687,0,0,0-.687.687v1.373a.687.687,0,0,1-.687.687h-4.806a.686.686,0,1,0,0,1.373h19.225a.686.686,0,1,0,0-1.373Z" transform="translate(-927.023 -1002.882)" fill="url(#linear-gradient)"/>
        </g>
        <g id="Group_1380" data-name="Group 1380" transform="translate(921.947 978.377)">
          <path id="Path_4631" data-name="Path 4631" d="M932.571,994.83h4.052a1.366,1.366,0,0,0,.829-.171.821.821,0,0,0,.2-.639v-2.2a2.22,2.22,0,0,1-.54.684,1.123,1.123,0,0,1-.648.162h-3.619a3.028,3.028,0,0,1-2.017-.666,2.21,2.21,0,0,1-.792-1.783v-2.557a2.193,2.193,0,0,1,.8-1.792,3.062,3.062,0,0,1,2.008-.658h6.338a3.026,3.026,0,0,1,2.035.676,2.216,2.216,0,0,1,.792,1.773v6.627a2.194,2.194,0,0,1-.82,1.765,3.027,3.027,0,0,1-2.008.684h-8.572l-.4-2.323a3.417,3.417,0,0,0,.892.315A7.9,7.9,0,0,0,932.571,994.83Zm2.521-4.07h1.854a.811.811,0,0,0,.541-.144.651.651,0,0,0,.162-.5v-2.341a.705.705,0,0,0-.144-.5.8.8,0,0,0-.559-.144h-1.854a.878.878,0,0,0-.576.135.7.7,0,0,0-.144.514v2.341a.7.7,0,0,0,.144.5A.834.834,0,0,0,935.092,990.76Z" transform="translate(-930.032 -985.214)" fill="#fafafa"/>
          <path id="Path_4632" data-name="Path 4632" d="M962.89,994.83h4.052a1.367,1.367,0,0,0,.829-.171.823.823,0,0,0,.2-.639v-2.2a2.228,2.228,0,0,1-.54.684,1.125,1.125,0,0,1-.649.162H963.16a3.027,3.027,0,0,1-2.017-.666,2.211,2.211,0,0,1-.792-1.783v-2.557a2.193,2.193,0,0,1,.8-1.792,3.061,3.061,0,0,1,2.008-.658H969.5a3.028,3.028,0,0,1,2.035.676,2.217,2.217,0,0,1,.792,1.773v6.627a2.2,2.2,0,0,1-.819,1.765,3.029,3.029,0,0,1-2.008.684h-8.571l-.4-2.323a3.409,3.409,0,0,0,.891.315A7.9,7.9,0,0,0,962.89,994.83Zm2.521-4.07h1.855a.808.808,0,0,0,.54-.144.651.651,0,0,0,.162-.5v-2.341a.705.705,0,0,0-.144-.5.8.8,0,0,0-.558-.144h-1.855a.877.877,0,0,0-.576.135.7.7,0,0,0-.144.514v2.341a.7.7,0,0,0,.144.5A.834.834,0,0,0,965.411,990.76Z" transform="translate(-946.684 -985.214)" fill="#fafafa"/>
        </g>
      </g>
    </g>
  </g>
</svg>
