<svg xmlns="http://www.w3.org/2000/svg" xmlns:xlink="http://www.w3.org/1999/xlink" width="60" height="60" viewBox="0 0 60 60">
  <defs>
    <linearGradient id="linear-gradient" x1="0.5" x2="0.5" y2="1" gradientUnits="objectBoundingBox">
      <stop offset="0" stop-color="#510016"/>
      <stop offset="0.021" stop-color="#510016"/>
      <stop offset="1" stop-color="#8b0016"/>
    </linearGradient>
    <clipPath id="clip-نداء_النادل">
      <rect width="60" height="60"/>
    </clipPath>
  </defs>
  <g id="نداء_النادل" data-name="نداء النادل" clip-path="url(#clip-نداء_النادل)">
    <rect width="60" height="60" fill="#fff"/>
    <g id="Group_3268" data-name="Group 3268" transform="translate(-512 -602)">
      <circle id="Ellipse_77" data-name="Ellipse 77" cx="30" cy="30" r="30" transform="translate(512 602)" fill="#fff"/>
      <g id="Group_1377" data-name="Group 1377" transform="translate(-456.051 -562.051)">
        <g id="serving-dish" transform="translate(980.17 1176.404)">
          <path id="Path_2455" data-name="Path 2455" d="M946.842,1153.011v-1.036h.923a1.02,1.02,0,1,0,.1-2.037c-.033,0-.066,0-.1,0h-3.88a1.02,1.02,0,0,0,0,2.037h.923v1.036a12.969,12.969,0,0,0-11.893,11.89h25.818A12.97,12.97,0,0,0,946.842,1153.011Zm-5.514,5.862a7.349,7.349,0,0,0-2.877,3.158,1.02,1.02,0,0,1-1.889-.768.963.963,0,0,1,.05-.107,9.387,9.387,0,0,1,3.671-4.03,1.02,1.02,0,0,1,1.045,1.748Zm3.749-1.033a7.287,7.287,0,0,0-.8.044,1.02,1.02,0,0,1-.221-2.025,9.562,9.562,0,0,1,1.024-.055,1.02,1.02,0,0,1,0,2.037Z" transform="translate(-928.443 -1149.937)" fill="url(#linear-gradient)"/>
          <path id="Path_2456" data-name="Path 2456" d="M957.788,1184.955h-33.4a.68.68,0,0,0-.68.68,3.667,3.667,0,0,0,3.667,3.667h5.909a3.7,3.7,0,0,0-2.084,1.532l-2.425,3.7h-5.067v8.183h18.44a5.5,5.5,0,0,0,4.1-1.832l7.4-8.146a2.068,2.068,0,0,0-1.32-3.437H954.8a3.667,3.667,0,0,0,3.667-3.667A.68.68,0,0,0,957.788,1184.955Zm-7.02,4.817-7.63,6.4a2.753,2.753,0,0,1-1.768.644h-3.017a1.916,1.916,0,0,1,0-3.832H941.2a1.917,1.917,0,0,0,.728-3.691h9.954a2.064,2.064,0,0,0-1.11.472Z" transform="translate(-923.705 -1167.952)" fill="url(#linear-gradient)"/>
        </g>
      </g>
    </g>
  </g>
</svg>
