<svg xmlns="http://www.w3.org/2000/svg" xmlns:xlink="http://www.w3.org/1999/xlink" width="60" height="60" viewBox="0 0 60 60">
  <defs>
    <linearGradient id="linear-gradient" x1="0.5" x2="0.5" y2="1" gradientUnits="objectBoundingBox">
      <stop offset="0" stop-color="#510016"/>
      <stop offset="0.021" stop-color="#510016"/>
      <stop offset="1" stop-color="#8b0016"/>
    </linearGradient>
    <clipPath id="clip-واتساب">
      <rect width="60" height="60"/>
    </clipPath>
  </defs>
  <g id="واتساب" clip-path="url(#clip-واتساب)">
    <rect width="60" height="60" fill="#fff"/>
    <g id="Group_3256" data-name="Group 3256">
      <path id="Path_19703" data-name="Path 19703" d="M30,0A30,30,0,1,1,0,30,30,30,0,0,1,30,0Z" fill="#fafafa"/>
      <g id="Group_3255" data-name="Group 3255" transform="translate(16.309 16.306)">
        <path id="Path_19695" data-name="Path 19695" d="M803.915,489.692a13.446,13.446,0,0,0-26.866-.245c-.007.194-.012.39-.012.585a13.24,13.24,0,0,0,1.925,6.891l-2.424,7.155,7.445-2.366a13.46,13.46,0,0,0,19.938-11.68C803.922,489.918,803.922,489.8,803.915,489.692Zm-13.436,11.554a11.246,11.246,0,0,1-6.217-1.857l-4.343,1.385,1.41-4.166a11.1,11.1,0,0,1-2.152-6.576,10.312,10.312,0,0,1,.057-1.089,11.307,11.307,0,0,1,22.511.214c.025.29.037.578.037.875A11.271,11.271,0,0,1,790.479,501.246Z" transform="translate(-776.539 -476.69)" fill-rule="evenodd" fill="url(#linear-gradient)"/>
        <path id="Path_19696" data-name="Path 19696" d="M794.887,491c-.334-.163-1.952-.956-2.253-1.062s-.523-.164-.744.163-.855,1.064-1.044,1.278-.384.245-.717.083a8.935,8.935,0,0,1-2.65-1.624,9.769,9.769,0,0,1-1.831-2.26c-.189-.327-.018-.5.144-.666s.328-.384.5-.573c.045-.056.083-.108.119-.157a3.647,3.647,0,0,0,.208-.391.591.591,0,0,0-.025-.572c-.083-.164-.744-1.775-1.021-2.429s-.547-.542-.742-.542-.409-.031-.63-.031a1.219,1.219,0,0,0-.88.409,3.66,3.66,0,0,0-1.152,2.731,4.147,4.147,0,0,0,.169,1.115,7.416,7.416,0,0,0,1.176,2.265c.164.214,2.278,3.625,5.627,4.941s3.354.868,3.958.812a3.288,3.288,0,0,0,2.221-1.556,2.689,2.689,0,0,0,.2-1.554C795.434,491.249,795.214,491.166,794.887,491Z" transform="translate(-774.785 -474.968)" fill-rule="evenodd" fill="url(#linear-gradient)"/>
      </g>
    </g>
  </g>
</svg>
